# xmcd
#
# Track frame offsets:
#	150
#	32950
#	56087
#	86470
#	111770
#	138465
#	159407
#	192057
#	224560
#	253050
#	268125
#	281600
#
# Disc length: 4040
#
# Revision: 2
# Processed by: cddbd v1.5.1PL0 Copyright (c) Steve Scherf et al.
# Submitted via: CDex 1.50Beta7
# Normalized: r1:DSETVAR1,TDELIM( - )
#
DISCID=b50fc60c
DTITLE=Various Artist - Basic Jazz v.3
DYEAR=1900
DGENRE=Jazz
TTITLE0=Horace Silver - Song For My Father
TTITLE1=Cannonball Adderley - Mercy, Mercy, Mercy
TTITLE2=Tony Williams - Takin' My Time
TTITLE3=John Scofield - You Bet
TTITLE4=Fattburger - Good News
TTITLE5=Richard Elliot - Street Beat
TTITLE6=Stanley Turrentine - Feeling Good
TTITLE7=Grant Green - Speak Low
TTITLE8=Ike Quebec - It Might As Well Be Spring
TTITLE9=Stan Kenton - Artistry In Rhythm
TTITLE10=Duke Ellington - Satin Doll
TTITLE11=Count Basie And His Orchestra - Lullabye Of Birdland
EXTD=
EXTT0=
EXTT1=
EXTT2=
EXTT3=
EXTT4=
EXTT5=
EXTT6=
EXTT7=
EXTT8=
EXTT9=
EXTT10=
EXTT11=
PLAYORDER=
